<?xml version="1.0" encoding="UTF-8" standalone="no"?>
<!DOCTYPE svg PUBLIC "-//W3C//DTD SVG 1.1//EN"
 "http://www.w3.org/Graphics/SVG/1.1/DTD/svg11.dtd">
<!-- Generated by graphviz version 2.43.0 (0)
 -->
<!-- Title: G Pages: 1 -->
<svg width="720pt" height="1431pt"
 viewBox="0.00 0.00 720.20 1431.20" xmlns="http://www.w3.org/2000/svg" xmlns:xlink="http://www.w3.org/1999/xlink">
<g id="graph0" class="graph" transform="scale(1 1) rotate(0) translate(21.6 1409.6)">
<title>G</title>
<polygon fill="#111111" stroke="transparent" points="-21.6,21.6 -21.6,-1409.6 698.6,-1409.6 698.6,21.6 -21.6,21.6"/>
<!-- .eslintrc.js -->
<g id="node1" class="node">
<title>.eslintrc.js</title>
<path fill="none" stroke="#cfffac" d="M235.67,-19C235.67,-19 186.33,-19 186.33,-19 183.17,-19 180,-15.83 180,-12.67 180,-12.67 180,-6.33 180,-6.33 180,-3.17 183.17,0 186.33,0 186.33,0 235.67,0 235.67,0 238.83,0 242,-3.17 242,-6.33 242,-6.33 242,-12.67 242,-12.67 242,-15.83 238.83,-19 235.67,-19"/>
<text text-anchor="middle" x="211" y="-7" font-family="Arial" font-size="10.00" fill="#cfffac">.eslintrc.js</text>
</g>
<!-- .next/server/app/favicon.ico/route.js -->
<g id="node2" class="node">
<title>.next/server/app/favicon.ico/route.js</title>
<path fill="none" stroke="#c6c5fe" d="M291.17,-56C291.17,-56 130.83,-56 130.83,-56 127.67,-56 124.5,-52.83 124.5,-49.67 124.5,-49.67 124.5,-43.33 124.5,-43.33 124.5,-40.17 127.67,-37 130.83,-37 130.83,-37 291.17,-37 291.17,-37 294.33,-37 297.5,-40.17 297.5,-43.33 297.5,-43.33 297.5,-49.67 297.5,-49.67 297.5,-52.83 294.33,-56 291.17,-56"/>
<text text-anchor="middle" x="211" y="-44" font-family="Arial" font-size="10.00" fill="#c6c5fe">.next/server/app/favicon.ico/route.js</text>
</g>
<!-- .next/server/chunks/[turbopack]_runtime.js -->
<g id="node3" class="node">
<title>.next/server/chunks/[turbopack]_runtime.js</title>
<path fill="none" stroke="#cfffac" d="M662.67,-56C662.67,-56 472.33,-56 472.33,-56 469.17,-56 466,-52.83 466,-49.67 466,-49.67 466,-43.33 466,-43.33 466,-40.17 469.17,-37 472.33,-37 472.33,-37 662.67,-37 662.67,-37 665.83,-37 669,-40.17 669,-43.33 669,-43.33 669,-49.67 669,-49.67 669,-52.83 665.83,-56 662.67,-56"/>
<text text-anchor="middle" x="567.5" y="-44" font-family="Arial" font-size="10.00" fill="#cfffac">.next/server/chunks/[turbopack]_runtime.js</text>
</g>
<!-- .next/server/app/favicon.ico/route.js&#45;&gt;.next/server/chunks/[turbopack]_runtime.js -->
<g id="edge1" class="edge">
<title>.next/server/app/favicon.ico/route.js&#45;&gt;.next/server/chunks/[turbopack]_runtime.js</title>
<path fill="none" stroke="#757575" d="M297.81,-46.5C345.26,-46.5 404.75,-46.5 455.69,-46.5"/>
<polygon fill="#757575" stroke="#757575" points="455.75,-50 465.75,-46.5 455.75,-43 455.75,-50"/>
</g>
<!-- .next/server/app/favicon.ico/route_client&#45;reference&#45;manifest.js -->
<g id="node4" class="node">
<title>.next/server/app/favicon.ico/route_client&#45;reference&#45;manifest.js</title>
<path fill="none" stroke="#cfffac" d="M347.17,-93C347.17,-93 74.83,-93 74.83,-93 71.67,-93 68.5,-89.83 68.5,-86.67 68.5,-86.67 68.5,-80.33 68.5,-80.33 68.5,-77.17 71.67,-74 74.83,-74 74.83,-74 347.17,-74 347.17,-74 350.33,-74 353.5,-77.17 353.5,-80.33 353.5,-80.33 353.5,-86.67 353.5,-86.67 353.5,-89.83 350.33,-93 347.17,-93"/>
<text text-anchor="middle" x="211" y="-81" font-family="Arial" font-size="10.00" fill="#cfffac">.next/server/app/favicon.ico/route_client&#45;reference&#45;manifest.js</text>
</g>
<!-- .next/server/app/page.js -->
<g id="node5" class="node">
<title>.next/server/app/page.js</title>
<path fill="none" stroke="#c6c5fe" d="M265.67,-130C265.67,-130 156.33,-130 156.33,-130 153.17,-130 150,-126.83 150,-123.67 150,-123.67 150,-117.33 150,-117.33 150,-114.17 153.17,-111 156.33,-111 156.33,-111 265.67,-111 265.67,-111 268.83,-111 272,-114.17 272,-117.33 272,-117.33 272,-123.67 272,-123.67 272,-126.83 268.83,-130 265.67,-130"/>
<text text-anchor="middle" x="211" y="-118" font-family="Arial" font-size="10.00" fill="#c6c5fe">.next/server/app/page.js</text>
</g>
<!-- .next/server/chunks/ssr/[turbopack]_runtime.js -->
<g id="node6" class="node">
<title>.next/server/chunks/ssr/[turbopack]_runtime.js</title>
<path fill="none" stroke="#cfffac" d="M670.67,-130C670.67,-130 464.33,-130 464.33,-130 461.17,-130 458,-126.83 458,-123.67 458,-123.67 458,-117.33 458,-117.33 458,-114.17 461.17,-111 464.33,-111 464.33,-111 670.67,-111 670.67,-111 673.83,-111 677,-114.17 677,-117.33 677,-117.33 677,-123.67 677,-123.67 677,-126.83 673.83,-130 670.67,-130"/>
<text text-anchor="middle" x="567.5" y="-118" font-family="Arial" font-size="10.00" fill="#cfffac">.next/server/chunks/ssr/[turbopack]_runtime.js</text>
</g>
<!-- .next/server/app/page.js&#45;&gt;.next/server/chunks/ssr/[turbopack]_runtime.js -->
<g id="edge2" class="edge">
<title>.next/server/app/page.js&#45;&gt;.next/server/chunks/ssr/[turbopack]_runtime.js</title>
<path fill="none" stroke="#757575" d="M272.14,-120.5C320.13,-120.5 388.85,-120.5 447.83,-120.5"/>
<polygon fill="#757575" stroke="#757575" points="447.96,-124 457.96,-120.5 447.96,-117 447.96,-124"/>
</g>
<!-- .next/server/app/page_client&#45;reference&#45;manifest.js -->
<g id="node7" class="node">
<title>.next/server/app/page_client&#45;reference&#45;manifest.js</title>
<path fill="none" stroke="#cfffac" d="M321.67,-167C321.67,-167 100.33,-167 100.33,-167 97.17,-167 94,-163.83 94,-160.67 94,-160.67 94,-154.33 94,-154.33 94,-151.17 97.17,-148 100.33,-148 100.33,-148 321.67,-148 321.67,-148 324.83,-148 328,-151.17 328,-154.33 328,-154.33 328,-160.67 328,-160.67 328,-163.83 324.83,-167 321.67,-167"/>
<text text-anchor="middle" x="211" y="-155" font-family="Arial" font-size="10.00" fill="#cfffac">.next/server/app/page_client&#45;reference&#45;manifest.js</text>
</g>
<!-- .next/server/chunks/93154_next_42662418._.js -->
<g id="node8" class="node">
<title>.next/server/chunks/93154_next_42662418._.js</title>
<path fill="none" stroke="#cfffac" d="M315.67,-204C315.67,-204 106.33,-204 106.33,-204 103.17,-204 100,-200.83 100,-197.67 100,-197.67 100,-191.33 100,-191.33 100,-188.17 103.17,-185 106.33,-185 106.33,-185 315.67,-185 315.67,-185 318.83,-185 322,-188.17 322,-191.33 322,-191.33 322,-197.67 322,-197.67 322,-200.83 318.83,-204 315.67,-204"/>
<text text-anchor="middle" x="211" y="-192" font-family="Arial" font-size="10.00" fill="#cfffac">.next/server/chunks/93154_next_42662418._.js</text>
</g>
<!-- .next/server/chunks/[root of the server]__08bda305._.js -->
<g id="node9" class="node">
<title>.next/server/chunks/[root of the server]__08bda305._.js</title>
<path fill="none" stroke="#cfffac" d="M333.17,-241C333.17,-241 88.83,-241 88.83,-241 85.67,-241 82.5,-237.83 82.5,-234.67 82.5,-234.67 82.5,-228.33 82.5,-228.33 82.5,-225.17 85.67,-222 88.83,-222 88.83,-222 333.17,-222 333.17,-222 336.33,-222 339.5,-225.17 339.5,-228.33 339.5,-228.33 339.5,-234.67 339.5,-234.67 339.5,-237.83 336.33,-241 333.17,-241"/>
<text text-anchor="middle" x="211" y="-229" font-family="Arial" font-size="10.00" fill="#cfffac">.next/server/chunks/[root of the server]__08bda305._.js</text>
</g>
<!-- .next/server/chunks/ssr/93154_next_dist_bd48e741._.js -->
<g id="node10" class="node">
<title>.next/server/chunks/ssr/93154_next_dist_bd48e741._.js</title>
<path fill="none" stroke="#cfffac" d="M334.67,-278C334.67,-278 87.33,-278 87.33,-278 84.17,-278 81,-274.83 81,-271.67 81,-271.67 81,-265.33 81,-265.33 81,-262.17 84.17,-259 87.33,-259 87.33,-259 334.67,-259 334.67,-259 337.83,-259 341,-262.17 341,-265.33 341,-265.33 341,-271.67 341,-271.67 341,-274.83 337.83,-278 334.67,-278"/>
<text text-anchor="middle" x="211" y="-266" font-family="Arial" font-size="10.00" fill="#cfffac">.next/server/chunks/ssr/93154_next_dist_bd48e741._.js</text>
</g>
<!-- .next/server/chunks/ssr/93154_next_dist_client_components_forbidden&#45;error_48689625.js -->
<g id="node11" class="node">
<title>.next/server/chunks/ssr/93154_next_dist_client_components_forbidden&#45;error_48689625.js</title>
<path fill="none" stroke="#cfffac" d="M407.67,-315C407.67,-315 14.33,-315 14.33,-315 11.17,-315 8,-311.83 8,-308.67 8,-308.67 8,-302.33 8,-302.33 8,-299.17 11.17,-296 14.33,-296 14.33,-296 407.67,-296 407.67,-296 410.83,-296 414,-299.17 414,-302.33 414,-302.33 414,-308.67 414,-308.67 414,-311.83 410.83,-315 407.67,-315"/>
<text text-anchor="middle" x="211" y="-303" font-family="Arial" font-size="10.00" fill="#cfffac">.next/server/chunks/ssr/93154_next_dist_client_components_forbidden&#45;error_48689625.js</text>
</g>
<!-- .next/server/chunks/ssr/93154_next_dist_client_components_unauthorized&#45;error_5b2eab5c.js -->
<g id="node12" class="node">
<title>.next/server/chunks/ssr/93154_next_dist_client_components_unauthorized&#45;error_5b2eab5c.js</title>
<path fill="none" stroke="#cfffac" d="M415.67,-352C415.67,-352 6.33,-352 6.33,-352 3.17,-352 0,-348.83 0,-345.67 0,-345.67 0,-339.33 0,-339.33 0,-336.17 3.17,-333 6.33,-333 6.33,-333 415.67,-333 415.67,-333 418.83,-333 422,-336.17 422,-339.33 422,-339.33 422,-345.67 422,-345.67 422,-348.83 418.83,-352 415.67,-352"/>
<text text-anchor="middle" x="211" y="-340" font-family="Arial" font-size="10.00" fill="#cfffac">.next/server/chunks/ssr/93154_next_dist_client_components_unauthorized&#45;error_5b2eab5c.js</text>
</g>
<!-- .next/server/chunks/ssr/[root of the server]__2665aa53._.js -->
<g id="node13" class="node">
<title>.next/server/chunks/ssr/[root of the server]__2665aa53._.js</title>
<path fill="none" stroke="#cfffac" d="M341.67,-389C341.67,-389 80.33,-389 80.33,-389 77.17,-389 74,-385.83 74,-382.67 74,-382.67 74,-376.33 74,-376.33 74,-373.17 77.17,-370 80.33,-370 80.33,-370 341.67,-370 341.67,-370 344.83,-370 348,-373.17 348,-376.33 348,-376.33 348,-382.67 348,-382.67 348,-385.83 344.83,-389 341.67,-389"/>
<text text-anchor="middle" x="211" y="-377" font-family="Arial" font-size="10.00" fill="#cfffac">.next/server/chunks/ssr/[root of the server]__2665aa53._.js</text>
</g>
<!-- .next/server/chunks/ssr/[root of the server]__29912de3._.js -->
<g id="node14" class="node">
<title>.next/server/chunks/ssr/[root of the server]__29912de3._.js</title>
<path fill="none" stroke="#cfffac" d="M341.67,-426C341.67,-426 80.33,-426 80.33,-426 77.17,-426 74,-422.83 74,-419.67 74,-419.67 74,-413.33 74,-413.33 74,-410.17 77.17,-407 80.33,-407 80.33,-407 341.67,-407 341.67,-407 344.83,-407 348,-410.17 348,-413.33 348,-413.33 348,-419.67 348,-419.67 348,-422.83 344.83,-426 341.67,-426"/>
<text text-anchor="middle" x="211" y="-414" font-family="Arial" font-size="10.00" fill="#cfffac">.next/server/chunks/ssr/[root of the server]__29912de3._.js</text>
</g>
<!-- .next/server/chunks/ssr/[root of the server]__849f7297._.js -->
<g id="node15" class="node">
<title>.next/server/chunks/ssr/[root of the server]__849f7297._.js</title>
<path fill="none" stroke="#cfffac" d="M340.67,-463C340.67,-463 81.33,-463 81.33,-463 78.17,-463 75,-459.83 75,-456.67 75,-456.67 75,-450.33 75,-450.33 75,-447.17 78.17,-444 81.33,-444 81.33,-444 340.67,-444 340.67,-444 343.83,-444 347,-447.17 347,-450.33 347,-450.33 347,-456.67 347,-456.67 347,-459.83 343.83,-463 340.67,-463"/>
<text text-anchor="middle" x="211" y="-451" font-family="Arial" font-size="10.00" fill="#cfffac">.next/server/chunks/ssr/[root of the server]__849f7297._.js</text>
</g>
<!-- .next/server/chunks/ssr/[root of the server]__97e0e1e6._.js -->
<g id="node16" class="node">
<title>.next/server/chunks/ssr/[root of the server]__97e0e1e6._.js</title>
<path fill="none" stroke="#cfffac" d="M341.67,-500C341.67,-500 80.33,-500 80.33,-500 77.17,-500 74,-496.83 74,-493.67 74,-493.67 74,-487.33 74,-487.33 74,-484.17 77.17,-481 80.33,-481 80.33,-481 341.67,-481 341.67,-481 344.83,-481 348,-484.17 348,-487.33 348,-487.33 348,-493.67 348,-493.67 348,-496.83 344.83,-500 341.67,-500"/>
<text text-anchor="middle" x="211" y="-488" font-family="Arial" font-size="10.00" fill="#cfffac">.next/server/chunks/ssr/[root of the server]__97e0e1e6._.js</text>
</g>
<!-- .next/server/chunks/ssr/_705b2a36._.js -->
<g id="node17" class="node">
<title>.next/server/chunks/ssr/_705b2a36._.js</title>
<path fill="none" stroke="#cfffac" d="M298.67,-537C298.67,-537 123.33,-537 123.33,-537 120.17,-537 117,-533.83 117,-530.67 117,-530.67 117,-524.33 117,-524.33 117,-521.17 120.17,-518 123.33,-518 123.33,-518 298.67,-518 298.67,-518 301.83,-518 305,-521.17 305,-524.33 305,-524.33 305,-530.67 305,-530.67 305,-533.83 301.83,-537 298.67,-537"/>
<text text-anchor="middle" x="211" y="-525" font-family="Arial" font-size="10.00" fill="#cfffac">.next/server/chunks/ssr/_705b2a36._.js</text>
</g>
<!-- .next/server/chunks/ssr/apps_xraylib_app_d951f8fe._.js -->
<g id="node18" class="node">
<title>.next/server/chunks/ssr/apps_xraylib_app_d951f8fe._.js</title>
<path fill="none" stroke="#cfffac" d="M334.67,-574C334.67,-574 87.33,-574 87.33,-574 84.17,-574 81,-570.83 81,-567.67 81,-567.67 81,-561.33 81,-561.33 81,-558.17 84.17,-555 87.33,-555 87.33,-555 334.67,-555 334.67,-555 337.83,-555 341,-558.17 341,-561.33 341,-561.33 341,-567.67 341,-567.67 341,-570.83 337.83,-574 334.67,-574"/>
<text text-anchor="middle" x="211" y="-562" font-family="Arial" font-size="10.00" fill="#cfffac">.next/server/chunks/ssr/apps_xraylib_app_d951f8fe._.js</text>
</g>
<!-- .next/server/interception&#45;route&#45;rewrite&#45;manifest.js -->
<g id="node19" class="node">
<title>.next/server/interception&#45;route&#45;rewrite&#45;manifest.js</title>
<path fill="none" stroke="#cfffac" d="M319.67,-611C319.67,-611 102.33,-611 102.33,-611 99.17,-611 96,-607.83 96,-604.67 96,-604.67 96,-598.33 96,-598.33 96,-595.17 99.17,-592 102.33,-592 102.33,-592 319.67,-592 319.67,-592 322.83,-592 326,-595.17 326,-598.33 326,-598.33 326,-604.67 326,-604.67 326,-607.83 322.83,-611 319.67,-611"/>
<text text-anchor="middle" x="211" y="-599" font-family="Arial" font-size="10.00" fill="#cfffac">.next/server/interception&#45;route&#45;rewrite&#45;manifest.js</text>
</g>
<!-- .next/server/middleware&#45;build&#45;manifest.js -->
<g id="node20" class="node">
<title>.next/server/middleware&#45;build&#45;manifest.js</title>
<path fill="none" stroke="#cfffac" d="M302.17,-648C302.17,-648 119.83,-648 119.83,-648 116.67,-648 113.5,-644.83 113.5,-641.67 113.5,-641.67 113.5,-635.33 113.5,-635.33 113.5,-632.17 116.67,-629 119.83,-629 119.83,-629 302.17,-629 302.17,-629 305.33,-629 308.5,-632.17 308.5,-635.33 308.5,-635.33 308.5,-641.67 308.5,-641.67 308.5,-644.83 305.33,-648 302.17,-648"/>
<text text-anchor="middle" x="211" y="-636" font-family="Arial" font-size="10.00" fill="#cfffac">.next/server/middleware&#45;build&#45;manifest.js</text>
</g>
<!-- .next/server/next&#45;font&#45;manifest.js -->
<g id="node21" class="node">
<title>.next/server/next&#45;font&#45;manifest.js</title>
<path fill="none" stroke="#cfffac" d="M285.17,-685C285.17,-685 136.83,-685 136.83,-685 133.67,-685 130.5,-681.83 130.5,-678.67 130.5,-678.67 130.5,-672.33 130.5,-672.33 130.5,-669.17 133.67,-666 136.83,-666 136.83,-666 285.17,-666 285.17,-666 288.33,-666 291.5,-669.17 291.5,-672.33 291.5,-672.33 291.5,-678.67 291.5,-678.67 291.5,-681.83 288.33,-685 285.17,-685"/>
<text text-anchor="middle" x="211" y="-673" font-family="Arial" font-size="10.00" fill="#cfffac">.next/server/next&#45;font&#45;manifest.js</text>
</g>
<!-- .next/server/server&#45;reference&#45;manifest.js -->
<g id="node22" class="node">
<title>.next/server/server&#45;reference&#45;manifest.js</title>
<path fill="none" stroke="#cfffac" d="M301.17,-722C301.17,-722 120.83,-722 120.83,-722 117.67,-722 114.5,-718.83 114.5,-715.67 114.5,-715.67 114.5,-709.33 114.5,-709.33 114.5,-706.17 117.67,-703 120.83,-703 120.83,-703 301.17,-703 301.17,-703 304.33,-703 307.5,-706.17 307.5,-709.33 307.5,-709.33 307.5,-715.67 307.5,-715.67 307.5,-718.83 304.33,-722 301.17,-722"/>
<text text-anchor="middle" x="211" y="-710" font-family="Arial" font-size="10.00" fill="#cfffac">.next/server/server&#45;reference&#45;manifest.js</text>
</g>
<!-- .next/static/chunks/61dca_@swc_helpers_cjs_e27e0aca._.js -->
<g id="node23" class="node">
<title>.next/static/chunks/61dca_@swc_helpers_cjs_e27e0aca._.js</title>
<path fill="none" stroke="#cfffac" d="M346.67,-759C346.67,-759 75.33,-759 75.33,-759 72.17,-759 69,-755.83 69,-752.67 69,-752.67 69,-746.33 69,-746.33 69,-743.17 72.17,-740 75.33,-740 75.33,-740 346.67,-740 346.67,-740 349.83,-740 353,-743.17 353,-746.33 353,-746.33 353,-752.67 353,-752.67 353,-755.83 349.83,-759 346.67,-759"/>
<text text-anchor="middle" x="211" y="-747" font-family="Arial" font-size="10.00" fill="#cfffac">.next/static/chunks/61dca_@swc_helpers_cjs_e27e0aca._.js</text>
</g>
<!-- .next/static/chunks/93154_next_dist_09600be6._.js -->
<g id="node24" class="node">
<title>.next/static/chunks/93154_next_dist_09600be6._.js</title>
<path fill="none" stroke="#cfffac" d="M324.67,-796C324.67,-796 97.33,-796 97.33,-796 94.17,-796 91,-792.83 91,-789.67 91,-789.67 91,-783.33 91,-783.33 91,-780.17 94.17,-777 97.33,-777 97.33,-777 324.67,-777 324.67,-777 327.83,-777 331,-780.17 331,-783.33 331,-783.33 331,-789.67 331,-789.67 331,-792.83 327.83,-796 324.67,-796"/>
<text text-anchor="middle" x="211" y="-784" font-family="Arial" font-size="10.00" fill="#cfffac">.next/static/chunks/93154_next_dist_09600be6._.js</text>
</g>
<!-- .next/static/chunks/93154_next_dist_936a7b41._.js -->
<g id="node25" class="node">
<title>.next/static/chunks/93154_next_dist_936a7b41._.js</title>
<path fill="none" stroke="#cfffac" d="M324.67,-833C324.67,-833 97.33,-833 97.33,-833 94.17,-833 91,-829.83 91,-826.67 91,-826.67 91,-820.33 91,-820.33 91,-817.17 94.17,-814 97.33,-814 97.33,-814 324.67,-814 324.67,-814 327.83,-814 331,-817.17 331,-820.33 331,-820.33 331,-826.67 331,-826.67 331,-829.83 327.83,-833 324.67,-833"/>
<text text-anchor="middle" x="211" y="-821" font-family="Arial" font-size="10.00" fill="#cfffac">.next/static/chunks/93154_next_dist_936a7b41._.js</text>
</g>
<!-- .next/static/chunks/93154_next_dist_build_polyfills_polyfill&#45;nomodule.js -->
<g id="node26" class="node">
<title>.next/static/chunks/93154_next_dist_build_polyfills_polyfill&#45;nomodule.js</title>
<path fill="none" stroke="#cfffac" d="M367.67,-870C367.67,-870 54.33,-870 54.33,-870 51.17,-870 48,-866.83 48,-863.67 48,-863.67 48,-857.33 48,-857.33 48,-854.17 51.17,-851 54.33,-851 54.33,-851 367.67,-851 367.67,-851 370.83,-851 374,-854.17 374,-857.33 374,-857.33 374,-863.67 374,-863.67 374,-866.83 370.83,-870 367.67,-870"/>
<text text-anchor="middle" x="211" y="-858" font-family="Arial" font-size="10.00" fill="#cfffac">.next/static/chunks/93154_next_dist_build_polyfills_polyfill&#45;nomodule.js</text>
</g>
<!-- .next/static/chunks/93154_next_dist_client_fc56d293._.js -->
<g id="node27" class="node">
<title>.next/static/chunks/93154_next_dist_client_fc56d293._.js</title>
<path fill="none" stroke="#cfffac" d="M337.67,-907C337.67,-907 84.33,-907 84.33,-907 81.17,-907 78,-903.83 78,-900.67 78,-900.67 78,-894.33 78,-894.33 78,-891.17 81.17,-888 84.33,-888 84.33,-888 337.67,-888 337.67,-888 340.83,-888 344,-891.17 344,-894.33 344,-894.33 344,-900.67 344,-900.67 344,-903.83 340.83,-907 337.67,-907"/>
<text text-anchor="middle" x="211" y="-895" font-family="Arial" font-size="10.00" fill="#cfffac">.next/static/chunks/93154_next_dist_client_fc56d293._.js</text>
</g>
<!-- .next/static/chunks/93154_next_dist_compiled_6d99934c._.js -->
<g id="node28" class="node">
<title>.next/static/chunks/93154_next_dist_compiled_6d99934c._.js</title>
<path fill="none" stroke="#cfffac" d="M346.67,-944C346.67,-944 75.33,-944 75.33,-944 72.17,-944 69,-940.83 69,-937.67 69,-937.67 69,-931.33 69,-931.33 69,-928.17 72.17,-925 75.33,-925 75.33,-925 346.67,-925 346.67,-925 349.83,-925 353,-928.17 353,-931.33 353,-931.33 353,-937.67 353,-937.67 353,-940.83 349.83,-944 346.67,-944"/>
<text text-anchor="middle" x="211" y="-932" font-family="Arial" font-size="10.00" fill="#cfffac">.next/static/chunks/93154_next_dist_compiled_6d99934c._.js</text>
</g>
<!-- .next/static/chunks/[turbopack]_browser_dev_hmr&#45;client_hmr&#45;client_ts_61dcf9ba._.js -->
<g id="node29" class="node">
<title>.next/static/chunks/[turbopack]_browser_dev_hmr&#45;client_hmr&#45;client_ts_61dcf9ba._.js</title>
<path fill="none" stroke="#cfffac" d="M397.67,-981C397.67,-981 24.33,-981 24.33,-981 21.17,-981 18,-977.83 18,-974.67 18,-974.67 18,-968.33 18,-968.33 18,-965.17 21.17,-962 24.33,-962 24.33,-962 397.67,-962 397.67,-962 400.83,-962 404,-965.17 404,-968.33 404,-968.33 404,-974.67 404,-974.67 404,-977.83 400.83,-981 397.67,-981"/>
<text text-anchor="middle" x="211" y="-969" font-family="Arial" font-size="10.00" fill="#cfffac">.next/static/chunks/[turbopack]_browser_dev_hmr&#45;client_hmr&#45;client_ts_61dcf9ba._.js</text>
</g>
<!-- .next/static/chunks/[turbopack]_browser_dev_hmr&#45;client_hmr&#45;client_ts_684cd476._.js -->
<g id="node30" class="node">
<title>.next/static/chunks/[turbopack]_browser_dev_hmr&#45;client_hmr&#45;client_ts_684cd476._.js</title>
<path fill="none" stroke="#cfffac" d="M398.67,-1018C398.67,-1018 23.33,-1018 23.33,-1018 20.17,-1018 17,-1014.83 17,-1011.67 17,-1011.67 17,-1005.33 17,-1005.33 17,-1002.17 20.17,-999 23.33,-999 23.33,-999 398.67,-999 398.67,-999 401.83,-999 405,-1002.17 405,-1005.33 405,-1005.33 405,-1011.67 405,-1011.67 405,-1014.83 401.83,-1018 398.67,-1018"/>
<text text-anchor="middle" x="211" y="-1006" font-family="Arial" font-size="10.00" fill="#cfffac">.next/static/chunks/[turbopack]_browser_dev_hmr&#45;client_hmr&#45;client_ts_684cd476._.js</text>
</g>
<!-- .next/static/chunks/[turbopack]_browser_dev_hmr&#45;client_hmr&#45;client_ts_c6c1e8ee._.js -->
<g id="node31" class="node">
<title>.next/static/chunks/[turbopack]_browser_dev_hmr&#45;client_hmr&#45;client_ts_c6c1e8ee._.js</title>
<path fill="none" stroke="#cfffac" d="M398.67,-1055C398.67,-1055 23.33,-1055 23.33,-1055 20.17,-1055 17,-1051.83 17,-1048.67 17,-1048.67 17,-1042.33 17,-1042.33 17,-1039.17 20.17,-1036 23.33,-1036 23.33,-1036 398.67,-1036 398.67,-1036 401.83,-1036 405,-1039.17 405,-1042.33 405,-1042.33 405,-1048.67 405,-1048.67 405,-1051.83 401.83,-1055 398.67,-1055"/>
<text text-anchor="middle" x="211" y="-1043" font-family="Arial" font-size="10.00" fill="#cfffac">.next/static/chunks/[turbopack]_browser_dev_hmr&#45;client_hmr&#45;client_ts_c6c1e8ee._.js</text>
</g>
<!-- .next/static/chunks/_af41a294._.js -->
<g id="node32" class="node">
<title>.next/static/chunks/_af41a294._.js</title>
<path fill="none" stroke="#cfffac" d="M288.17,-1092C288.17,-1092 133.83,-1092 133.83,-1092 130.67,-1092 127.5,-1088.83 127.5,-1085.67 127.5,-1085.67 127.5,-1079.33 127.5,-1079.33 127.5,-1076.17 130.67,-1073 133.83,-1073 133.83,-1073 288.17,-1073 288.17,-1073 291.33,-1073 294.5,-1076.17 294.5,-1079.33 294.5,-1079.33 294.5,-1085.67 294.5,-1085.67 294.5,-1088.83 291.33,-1092 288.17,-1092"/>
<text text-anchor="middle" x="211" y="-1080" font-family="Arial" font-size="10.00" fill="#cfffac">.next/static/chunks/_af41a294._.js</text>
</g>
<!-- .next/static/chunks/apps_xraylib_app_favicon_ico_mjs_af73d567._.js -->
<g id="node33" class="node">
<title>.next/static/chunks/apps_xraylib_app_favicon_ico_mjs_af73d567._.js</title>
<path fill="none" stroke="#cfffac" d="M363.67,-1129C363.67,-1129 58.33,-1129 58.33,-1129 55.17,-1129 52,-1125.83 52,-1122.67 52,-1122.67 52,-1116.33 52,-1116.33 52,-1113.17 55.17,-1110 58.33,-1110 58.33,-1110 363.67,-1110 363.67,-1110 366.83,-1110 370,-1113.17 370,-1116.33 370,-1116.33 370,-1122.67 370,-1122.67 370,-1125.83 366.83,-1129 363.67,-1129"/>
<text text-anchor="middle" x="211" y="-1117" font-family="Arial" font-size="10.00" fill="#cfffac">.next/static/chunks/apps_xraylib_app_favicon_ico_mjs_af73d567._.js</text>
</g>
<!-- .next/static/chunks/apps_xraylib_app_layout_tsx_a9120b77._.js -->
<g id="node34" class="node">
<title>.next/static/chunks/apps_xraylib_app_layout_tsx_a9120b77._.js</title>
<path fill="none" stroke="#cfffac" d="M352.17,-1166C352.17,-1166 69.83,-1166 69.83,-1166 66.67,-1166 63.5,-1162.83 63.5,-1159.67 63.5,-1159.67 63.5,-1153.33 63.5,-1153.33 63.5,-1150.17 66.67,-1147 69.83,-1147 69.83,-1147 352.17,-1147 352.17,-1147 355.33,-1147 358.5,-1150.17 358.5,-1153.33 358.5,-1153.33 358.5,-1159.67 358.5,-1159.67 358.5,-1162.83 355.33,-1166 352.17,-1166"/>
<text text-anchor="middle" x="211" y="-1154" font-family="Arial" font-size="10.00" fill="#cfffac">.next/static/chunks/apps_xraylib_app_layout_tsx_a9120b77._.js</text>
</g>
<!-- .next/static/chunks/apps_xraylib_app_page_tsx_255147e2._.js -->
<g id="node35" class="node">
<title>.next/static/chunks/apps_xraylib_app_page_tsx_255147e2._.js</title>
<path fill="none" stroke="#cfffac" d="M349.67,-1203C349.67,-1203 72.33,-1203 72.33,-1203 69.17,-1203 66,-1199.83 66,-1196.67 66,-1196.67 66,-1190.33 66,-1190.33 66,-1187.17 69.17,-1184 72.33,-1184 72.33,-1184 349.67,-1184 349.67,-1184 352.83,-1184 356,-1187.17 356,-1190.33 356,-1190.33 356,-1196.67 356,-1196.67 356,-1199.83 352.83,-1203 349.67,-1203"/>
<text text-anchor="middle" x="211" y="-1191" font-family="Arial" font-size="10.00" fill="#cfffac">.next/static/chunks/apps_xraylib_app_page_tsx_255147e2._.js</text>
</g>
<!-- .next/static/chunks/apps_xraylib_b734333b._.js -->
<g id="node36" class="node">
<title>.next/static/chunks/apps_xraylib_b734333b._.js</title>
<path fill="none" stroke="#cfffac" d="M316.67,-1240C316.67,-1240 105.33,-1240 105.33,-1240 102.17,-1240 99,-1236.83 99,-1233.67 99,-1233.67 99,-1227.33 99,-1227.33 99,-1224.17 102.17,-1221 105.33,-1221 105.33,-1221 316.67,-1221 316.67,-1221 319.83,-1221 323,-1224.17 323,-1227.33 323,-1227.33 323,-1233.67 323,-1233.67 323,-1236.83 319.83,-1240 316.67,-1240"/>
<text text-anchor="middle" x="211" y="-1228" font-family="Arial" font-size="10.00" fill="#cfffac">.next/static/chunks/apps_xraylib_b734333b._.js</text>
</g>
<!-- .next/static/chunks/apps_xraylib_e69f0d32._.js -->
<g id="node37" class="node">
<title>.next/static/chunks/apps_xraylib_e69f0d32._.js</title>
<path fill="none" stroke="#cfffac" d="M315.17,-1277C315.17,-1277 106.83,-1277 106.83,-1277 103.67,-1277 100.5,-1273.83 100.5,-1270.67 100.5,-1270.67 100.5,-1264.33 100.5,-1264.33 100.5,-1261.17 103.67,-1258 106.83,-1258 106.83,-1258 315.17,-1258 315.17,-1258 318.33,-1258 321.5,-1261.17 321.5,-1264.33 321.5,-1264.33 321.5,-1270.67 321.5,-1270.67 321.5,-1273.83 318.33,-1277 315.17,-1277"/>
<text text-anchor="middle" x="211" y="-1265" font-family="Arial" font-size="10.00" fill="#cfffac">.next/static/chunks/apps_xraylib_e69f0d32._.js</text>
</g>
<!-- .next/static/development/_buildManifest.js -->
<g id="node38" class="node">
<title>.next/static/development/_buildManifest.js</title>
<path fill="none" stroke="#cfffac" d="M304.67,-1314C304.67,-1314 117.33,-1314 117.33,-1314 114.17,-1314 111,-1310.83 111,-1307.67 111,-1307.67 111,-1301.33 111,-1301.33 111,-1298.17 114.17,-1295 117.33,-1295 117.33,-1295 304.67,-1295 304.67,-1295 307.83,-1295 311,-1298.17 311,-1301.33 311,-1301.33 311,-1307.67 311,-1307.67 311,-1310.83 307.83,-1314 304.67,-1314"/>
<text text-anchor="middle" x="211" y="-1302" font-family="Arial" font-size="10.00" fill="#cfffac">.next/static/development/_buildManifest.js</text>
</g>
<!-- .next/static/development/_ssgManifest.js -->
<g id="node39" class="node">
<title>.next/static/development/_ssgManifest.js</title>
<path fill="none" stroke="#cfffac" d="M302.67,-1351C302.67,-1351 119.33,-1351 119.33,-1351 116.17,-1351 113,-1347.83 113,-1344.67 113,-1344.67 113,-1338.33 113,-1338.33 113,-1335.17 116.17,-1332 119.33,-1332 119.33,-1332 302.67,-1332 302.67,-1332 305.83,-1332 309,-1335.17 309,-1338.33 309,-1338.33 309,-1344.67 309,-1344.67 309,-1347.83 305.83,-1351 302.67,-1351"/>
<text text-anchor="middle" x="211" y="-1339" font-family="Arial" font-size="10.00" fill="#cfffac">.next/static/development/_ssgManifest.js</text>
</g>
<!-- next.config.js -->
<g id="node40" class="node">
<title>next.config.js</title>
<path fill="none" stroke="#cfffac" d="M242.17,-1388C242.17,-1388 179.83,-1388 179.83,-1388 176.67,-1388 173.5,-1384.83 173.5,-1381.67 173.5,-1381.67 173.5,-1375.33 173.5,-1375.33 173.5,-1372.17 176.67,-1369 179.83,-1369 179.83,-1369 242.17,-1369 242.17,-1369 245.33,-1369 248.5,-1372.17 248.5,-1375.33 248.5,-1375.33 248.5,-1381.67 248.5,-1381.67 248.5,-1384.83 245.33,-1388 242.17,-1388"/>
<text text-anchor="middle" x="211" y="-1376" font-family="Arial" font-size="10.00" fill="#cfffac">next.config.js</text>
</g>
</g>
</svg>
